HIERARCHY
ROOT Hips
{
	OFFSET 0.000000 0.000000 0.000000
	CHANNELS 6 Xposition Yposition Zposition Yrotation Xrotation Zrotation
	JOINT Chest
	{
		OFFSET 0.000000 -0.009281 11.569106
		CHANNELS 3 Yrotation Xrotation Zrotation
		JOINT Chest2
		{
			OFFSET -0.000000 0.016865 9.269641
			CHANNELS 3 Yrotation Xrotation Zrotation
			JOINT Chest3
			{
				OFFSET -0.000000 0.000001 8.374491
				CHANNELS 3 Yrotation Xrotation Zrotation
				JOINT Chest4
				{
					OFFSET -0.000000 0.000001 8.374493
					CHANNELS 3 Yrotation Xrotation Zrotation
					JOINT Neck
					{
						OFFSET -0.000000 0.000002 12.152554
						CHANNELS 3 Yrotation Xrotation Zrotation
						JOINT Head
						{
							OFFSET -0.000000 0.040101 7.802319
							CHANNELS 3 Yrotation Xrotation Zrotation
							End Site
							{
								OFFSET -0.000000 0.020947 14.853096
							}
						}
					}
					JOINT RightCollar
					{
						OFFSET 2.894404 0.000001 6.791374
						CHANNELS 3 Yrotation Xrotation Zrotation
						JOINT RightShoulder
						{
							OFFSET 13.574684 0.000001 0.000000
							CHANNELS 3 Yrotation Xrotation Zrotation
							JOINT RightElbow
							{
								OFFSET 23.923903 0.000002 0.000000
								CHANNELS 3 Yrotation Xrotation Zrotation
								JOINT RightWrist
								{
									OFFSET 19.846718 0.012767 0.000000
									CHANNELS 3 Yrotation Xrotation Zrotation
									End Site
									{
										OFFSET 14.973145 0.000001 0.000000
									}
								}
							}
						}
					}
					JOINT LeftCollar
					{
						OFFSET -2.894404 0.000001 6.791374
						CHANNELS 3 Yrotation Xrotation Zrotation
						JOINT LeftShoulder
						{
							OFFSET -13.574684 -0.000001 0.000000
							CHANNELS 3 Yrotation Xrotation Zrotation
							JOINT LeftElbow
							{
								OFFSET -23.923903 -0.000002 0.000000
								CHANNELS 3 Yrotation Xrotation Zrotation
								JOINT LeftWrist
								{
									OFFSET -19.846718 0.012763 0.000000
									CHANNELS 3 Yrotation Xrotation Zrotation
									End Site
									{
										OFFSET -14.973145 -0.000001 0.000000
									}
								}
							}
						}
					}
				}
			}
		}
	}
	JOINT RightHip
	{
		OFFSET 9.469263 0.004643 0.045487
		CHANNELS 3 Yrotation Xrotation Zrotation
		JOINT RightKnee
		{
			OFFSET 0.000000 0.002661 -40.478676
			CHANNELS 3 Yrotation Xrotation Zrotation
			JOINT RightAnkle
			{
				OFFSET 0.000000 0.049106 -35.224068
				CHANNELS 3 Yrotation Xrotation Zrotation
				JOINT RightToe
				{
					OFFSET -0.000001 12.539529 -6.151390
					CHANNELS 3 Yrotation Xrotation Zrotation
					End Site
					{
						OFFSET -0.000001 5.044994 -1.291870
					}
				}
			}
		}
	}
	JOINT LeftHip
	{
		OFFSET -9.469263 0.004641 0.045487
		CHANNELS 3 Yrotation Xrotation Zrotation
		JOINT LeftKnee
		{
			OFFSET 0.000000 0.002661 -40.478676
			CHANNELS 3 Yrotation Xrotation Zrotation
			JOINT LeftAnkle
			{
				OFFSET 0.000000 0.049106 -35.224068
				CHANNELS 3 Yrotation Xrotation Zrotation
				JOINT LeftToe
				{
					OFFSET -0.000001 12.539529 -6.151390
					CHANNELS 3 Yrotation Xrotation Zrotation
					End Site
					{
						OFFSET -0.000001 5.044994 -1.291870
					}
				}
			}
		}
	}
}
MOTION
Frames: 11
Frame Time: 0.016667
10.139477 7.356070 83.080414 -6.011911 -2.615711 -108.935800 -0.181413 -3.625486 0.855050 -0.069509 -1.610836 0.371294 -0.069509 -1.610836 0.371297 -0.051149 -1.208169 0.278272 1.024370 -16.019696 -2.548071 0.980603 6.429196 -4.371116 3.595993 18.738050 -4.239665 35.154625 55.131255 30.773568 34.602633 -0.355781 74.794273 -16.555009 24.241532 16.426730 -4.907648 15.763399 -2.512188 -35.705050 52.753704 -31.769512 -33.090846 8.610896 -71.549599 10.710417 37.991688 -17.605521 -0.552124 -6.516288 -2.918692 1.498491 -4.266188 -6.431662 -0.126004 3.565016 2.078363 -0.031157 0.002504 -0.001480 -0.398859 -7.818373 0.529706 0.175997 -2.301500 2.210312 0.138199 3.846584 1.271995 0.001475 -0.021901 0.005271 
10.134815 7.346304 83.081970 -6.015821 -2.612246 -108.939058 -0.146185 -3.631861 0.821785 -0.054851 -1.614489 0.355758 -0.054851 -1.614489 0.355759 -0.040195 -1.210899 0.266657 0.940604 -16.017545 -2.510610 0.838246 6.431469 -4.331875 3.632121 18.898240 -4.159962 34.572672 55.030906 30.347804 28.768135 -0.830763 74.210709 -22.023757 19.865518 17.340249 -4.742997 15.686646 -2.145062 -35.754121 52.735491 -31.821018 -31.294168 8.107733 -70.842620 10.459239 39.771727 -16.771333 -0.549759 -6.511864 -2.847113 1.505649 -4.275058 -6.478746 -0.136665 3.570052 2.045224 -0.024903 0.002899 -0.001867 -0.398625 -7.830368 0.523174 0.183478 -2.280748 2.205830 0.125948 3.831677 1.284883 0.002031 -0.019406 0.005499 
10.127700 7.338361 83.080193 -6.023090 -2.616562 -108.956571 -0.126757 -3.655695 0.809851 -0.046473 -1.624589 0.350466 -0.046473 -1.624589 0.350470 -0.033921 -1.218469 0.262711 0.887870 -15.985766 -2.485719 0.748256 6.489395 -4.305174 3.835514 19.156278 -3.860312 33.822451 54.885484 29.915368 24.362943 -0.960831 73.783767 -25.688721 16.853487 18.375167 -4.699973 15.543528 -2.089621 -35.448542 52.761121 -31.434832 -32.806597 7.798613 -71.417032 7.563062 45.400899 -16.135714 -0.547927 -6.509749 -2.816335 1.511512 -4.286530 -6.485289 -0.143614 3.577966 2.051497 -0.020597 -0.001881 -0.001767 -0.397053 -7.840068 0.514506 0.192645 -2.276868 2.219136 0.120892 3.831692 1.288673 -0.002990 -0.023025 0.005512 
10.122281 7.332686 83.077141 -6.026380 -2.624428 -108.983352 -0.125823 -3.686318 0.809644 -0.045236 -1.637069 0.351590 -0.045236 -1.637069 0.351592 -0.032983 -1.227828 0.263556 0.880399 -15.939916 -2.474039 0.737325 6.574513 -4.286803 3.820722 19.107956 -3.928334 34.150048 55.048285 30.204825 24.352908 -1.308170 73.687113 -26.230252 17.298021 18.734905 -4.820875 15.580391 -2.335228 -35.003493 52.725560 -30.909195 -37.391584 7.865580 -72.950983 3.666650 48.666225 -16.241109 -0.540306 -6.507138 -2.857769 1.510434 -4.295031 -6.438643 -0.147555 3.587491 2.065922 -0.019256 -0.010176 -0.003027 -0.399443 -7.842542 0.527410 0.210483 -2.285885 2.232079 0.120246 3.841987 1.292309 -0.012037 -0.028350 0.005535 
10.119423 7.325085 83.075020 -6.031510 -2.627286 -109.013111 -0.127719 -3.715036 0.822573 -0.045886 -1.649316 0.359052 -0.045886 -1.649317 0.359051 -0.033444 -1.237015 0.269146 0.889712 -15.902774 -2.477146 0.752513 6.643681 -4.289712 3.551146 18.863724 -4.364731 35.112998 54.964469 30.845708 28.341300 -1.135982 74.217081 -23.623372 19.413310 18.104811 -4.845881 15.573005 -2.406876 -35.407267 52.785676 -31.166204 -42.712585 7.977334 -74.506326 0.538179 48.870519 -16.795321 -0.539010 -6.511359 -2.931725 1.503721 -4.295561 -6.358309 -0.149296 3.597476 2.096972 -0.017005 -0.019931 -0.004248 -0.409197 -7.844412 0.562600 0.231696 -2.299958 2.212098 0.123733 3.851561 1.323919 -0.022847 -0.028575 0.005515 
10.120578 7.319091 83.073776 -6.031753 -2.617583 -109.041231 -0.132586 -3.720722 0.847639 -0.048564 -1.651814 0.371799 -0.048564 -1.651814 0.371803 -0.035415 -1.238890 0.278702 0.897617 -15.896171 -2.493706 0.761011 6.655882 -4.317765 3.475056 18.516255 -4.448886 35.436869 54.658698 30.937656 33.814887 -0.265188 75.367798 -19.149334 21.266805 16.422886 -4.787771 15.337381 -2.392503 -36.413432 53.151064 -31.988566 -45.572412 7.867275 -75.316619 -0.546163 48.703282 -17.441516 -0.541493 -6.515121 -2.996226 1.490407 -4.282839 -6.285634 -0.155964 3.605372 2.101703 -0.010604 -0.030166 -0.006777 -0.428581 -7.850305 0.607846 0.253112 -2.292279 2.167030 0.125557 3.848271 1.351074 -0.029432 -0.024982 0.006031 
10.124352 7.310905 83.072380 -6.019628 -2.596063 -109.059352 -0.145097 -3.703585 0.874419 -0.056184 -1.644240 0.383901 -0.056184 -1.644240 0.383905 -0.041102 -1.233216 0.287756 0.910136 -15.918606 -2.512365 0.778143 6.614262 -4.347631 3.726503 18.495239 -4.026447 34.786386 54.322100 30.284724 38.823543 0.723034 76.372580 -14.217050 23.088558 14.631522 -4.794032 15.233028 -2.459375 -37.159665 53.422632 -32.676971 -45.000937 7.740219 -75.217540 1.331845 48.459110 -17.923625 -0.549317 -6.513338 -3.025855 1.476041 -4.256218 -6.247609 -0.166362 3.611769 2.111143 0.000220 -0.040173 -0.006620 -0.451422 -7.847601 0.631046 0.269944 -2.271364 2.147630 0.127375 3.838805 1.358678 -0.033748 -0.021612 0.006526 
10.131383 7.301342 83.071800 -5.997042 -2.574868 -109.072431 -0.162078 -3.683682 0.885410 -0.065198 -1.635820 0.388280 -0.065198 -1.635821 0.388282 -0.047855 -1.226907 0.291017 0.930853 -15.950945 -2.521842 0.814167 6.554649 -4.357262 3.910403 18.638586 -3.719552 34.508011 54.439920 30.148486 41.516151 1.069302 76.365750 -10.776093 25.298483 13.980320 -4.831877 15.390283 -2.525900 -37.163725 53.277292 -32.771777 -41.921013 7.978926 -74.456363 4.943003 46.827285 -17.993693 -0.553948 -6.512996 -3.004753 1.475855 -4.210046 -6.268827 -0.191276 3.608229 2.118604 0.013406 -0.045043 -0.005946 -0.467736 -7.842468 0.651655 0.284119 -2.239727 2.140498 0.124028 3.825023 1.356954 -0.033209 -0.017660 0.007177 
10.139919 7.285020 83.072815 -5.969664 -2.556842 -109.082588 -0.176636 -3.667769 0.877664 -0.072475 -1.629434 0.383809 -0.072474 -1.629434 0.383810 -0.053329 -1.222122 0.287643 0.941226 -15.980973 -2.520034 0.834970 6.499228 -4.349696 3.787712 18.784140 -3.941714 35.023663 54.689813 30.661628 40.212728 0.567031 75.588331 -11.067756 26.789829 15.014472 -4.858837 15.668725 -2.548101 -36.550531 52.927518 -32.394382 -37.871715 8.463959 -73.157903 8.377014 43.637594 -17.976955 -0.553287 -6.517092 -2.946971 1.480147 -4.152655 -6.331401 -0.217480 3.596998 2.149046 0.023541 -0.043951 -0.004183 -0.474002 -7.839326 0.662431 0.297143 -2.201321 2.144900 0.113587 3.808447 1.346254 -0.030732 -0.013133 0.006984 
10.148895 7.265281 83.074272 -5.956729 -2.539199 -109.088189 -0.169777 -3.660527 0.857898 -0.070267 -1.626913 0.374641 -0.070267 -1.626912 0.374640 -0.051699 -1.220228 0.280773 0.910161 -15.999218 -2.512213 0.780494 6.464606 -4.346191 3.554630 18.669332 -4.327342 35.457424 54.941803 30.934716 35.923397 -0.379593 74.872923 -15.348123 25.008888 16.040252 -4.839183 15.743627 -2.456479 -36.018589 52.779819 -32.096473 -34.146373 8.647581 -71.760904 11.136300 39.861571 -17.677453 -0.549564 -6.531327 -2.892031 1.482253 -4.105652 -6.391919 -0.243079 3.591595 2.146282 0.027699 -0.041401 -0.004882 -0.481341 -7.847926 0.655852 0.309773 -2.167761 2.149633 0.097065 3.791938 1.357161 -0.025517 -0.006699 0.007629 
10.154329 7.243463 83.073540 -5.958943 -2.526017 -109.095080 -0.144336 -3.660423 0.837632 -0.059940 -1.627155 0.365908 -0.059940 -1.627155 0.365908 -0.043977 -1.220403 0.274253 0.849819 -15.995581 -2.504100 0.671020 6.469766 -4.353108 3.606382 18.743417 -4.237975 34.863335 54.862238 30.433356 31.034891 -0.833506 74.468794 -20.607567 21.083880 16.797481 -4.740775 15.765415 -2.149892 -35.885575 52.748882 -31.956409 -31.952127 8.046743 -70.935312 11.922676 39.645396 -16.881644 -0.551771 -6.555061 -2.854834 1.487371 -4.069789 -6.431567 -0.265304 3.594089 2.162194 0.028811 -0.042577 -0.004459 -0.486580 -7.864313 0.630200 0.320023 -2.149520 2.148833 0.083724 3.787932 1.384575 -0.023755 -0.005623 0.007437 
